<svg width="126" height="39" viewBox="0 0 126 39" fill="none" xmlns="http://www.w3.org/2000/svg">
<g filter="url(#filter0_d_212_4)">
<rect x="4" width="118" height="31" rx="8" fill="white"/>
</g>
<path d="M21.3249 5.54545V23H19.2113V5.54545H21.3249ZM27.3015 15.125V23H25.2901V9.90909H27.2333V11.9545H27.4038C27.7106 11.2898 28.1765 10.7557 28.8015 10.3523C29.4265 9.94318 30.2333 9.73864 31.2219 9.73864C32.1083 9.73864 32.8839 9.92045 33.5487 10.2841C34.2134 10.642 34.7305 11.1875 35.0998 11.9205C35.4691 12.6477 35.6538 13.5682 35.6538 14.6818V23H33.6424V14.8182C33.6424 13.7898 33.3754 12.9886 32.8413 12.4148C32.3072 11.8352 31.5742 11.5455 30.6424 11.5455C30.0004 11.5455 29.4265 11.6847 28.9208 11.9631C28.4208 12.2415 28.0259 12.6477 27.7362 13.1818C27.4464 13.7159 27.3015 14.3636 27.3015 15.125ZM55.8974 9.90909C55.7951 9.04545 55.3803 8.375 54.6531 7.89773C53.9258 7.42045 53.0337 7.18182 51.9769 7.18182C51.2042 7.18182 50.5281 7.30682 49.9485 7.55682C49.3746 7.80682 48.9258 8.15057 48.6019 8.58807C48.2837 9.02557 48.1246 9.52273 48.1246 10.0795C48.1246 10.5455 48.2354 10.946 48.457 11.2812C48.6843 11.6108 48.9741 11.8864 49.3263 12.108C49.6786 12.3239 50.0479 12.5028 50.4343 12.6449C50.8207 12.7812 51.1758 12.892 51.4996 12.9773L53.2724 13.4545C53.7269 13.5739 54.2326 13.7386 54.7894 13.9489C55.3519 14.1591 55.8888 14.446 56.4002 14.8097C56.9173 15.1676 57.3434 15.6278 57.6786 16.1903C58.0139 16.7528 58.1815 17.4432 58.1815 18.2614C58.1815 19.2045 57.9343 20.0568 57.44 20.8182C56.9513 21.5795 56.2354 22.1847 55.2923 22.6335C54.3548 23.0824 53.2156 23.3068 51.8746 23.3068C50.6246 23.3068 49.5423 23.1051 48.6275 22.7017C47.7184 22.2983 47.0025 21.7358 46.4798 21.0142C45.9627 20.2926 45.6701 19.4545 45.6019 18.5H47.7837C47.8406 19.1591 48.0621 19.7045 48.4485 20.1364C48.8406 20.5625 49.3349 20.8807 49.9315 21.0909C50.5337 21.2955 51.1815 21.3977 51.8746 21.3977C52.6815 21.3977 53.4059 21.267 54.0479 21.0057C54.69 20.7386 55.1985 20.3693 55.5735 19.8977C55.9485 19.4205 56.136 18.8636 56.136 18.2273C56.136 17.6477 55.9741 17.1761 55.6502 16.8125C55.3263 16.4489 54.9002 16.1534 54.3718 15.9261C53.8434 15.6989 53.2724 15.5 52.6587 15.3295L50.511 14.7159C49.1474 14.3239 48.0678 13.7642 47.2724 13.0369C46.4769 12.3097 46.0792 11.358 46.0792 10.1818C46.0792 9.20454 46.3434 8.35227 46.8718 7.625C47.4059 6.89205 48.1218 6.32386 49.0195 5.92045C49.9229 5.51136 50.9315 5.30682 52.0451 5.30682C53.1701 5.30682 54.1701 5.50852 55.0451 5.91193C55.9201 6.30966 56.6133 6.85511 57.1246 7.54829C57.6417 8.24148 57.9144 9.02841 57.9428 9.90909H55.8974ZM67.0771 9.90909V11.6136H60.293V9.90909H67.0771ZM62.2702 6.77273H64.2816V19.25C64.2816 19.8182 64.364 20.2443 64.5288 20.5284C64.6992 20.8068 64.9151 20.9943 65.1765 21.0909C65.4435 21.1818 65.7248 21.2273 66.0202 21.2273C66.2418 21.2273 66.4237 21.2159 66.5657 21.1932C66.7077 21.1648 66.8214 21.142 66.9066 21.125L67.3157 22.9318C67.1793 22.983 66.989 23.0341 66.7447 23.0852C66.5004 23.142 66.1907 23.1705 65.8157 23.1705C65.2475 23.1705 64.6907 23.0483 64.1452 22.804C63.6055 22.5597 63.1566 22.1875 62.7987 21.6875C62.4464 21.1875 62.2702 20.5568 62.2702 19.7955V6.77273ZM75.2802 23.2727C74.0984 23.2727 73.0614 22.9915 72.1694 22.429C71.283 21.8665 70.5898 21.0795 70.0898 20.0682C69.5955 19.0568 69.3484 17.875 69.3484 16.5227C69.3484 15.1591 69.5955 13.9687 70.0898 12.9517C70.5898 11.9347 71.283 11.1449 72.1694 10.5824C73.0614 10.0199 74.0984 9.73864 75.2802 9.73864C76.462 9.73864 77.4961 10.0199 78.3825 10.5824C79.2745 11.1449 79.9677 11.9347 80.462 12.9517C80.962 13.9687 81.212 15.1591 81.212 16.5227C81.212 17.875 80.962 19.0568 80.462 20.0682C79.9677 21.0795 79.2745 21.8665 78.3825 22.429C77.4961 22.9915 76.462 23.2727 75.2802 23.2727ZM75.2802 21.4659C76.1779 21.4659 76.9165 21.2358 77.4961 20.7756C78.0756 20.3153 78.5046 19.7102 78.783 18.9602C79.0614 18.2102 79.2006 17.3977 79.2006 16.5227C79.2006 15.6477 79.0614 14.8324 78.783 14.0767C78.5046 13.321 78.0756 12.7102 77.4961 12.2443C76.9165 11.7784 76.1779 11.5455 75.2802 11.5455C74.3825 11.5455 73.6438 11.7784 73.0643 12.2443C72.4847 12.7102 72.0558 13.321 71.7773 14.0767C71.4989 14.8324 71.3597 15.6477 71.3597 16.5227C71.3597 17.3977 71.4989 18.2102 71.7773 18.9602C72.0558 19.7102 72.4847 20.3153 73.0643 20.7756C73.6438 21.2358 74.3825 21.4659 75.2802 21.4659ZM89.6005 23.2727C88.3732 23.2727 87.3164 22.983 86.43 22.4034C85.5437 21.8239 84.8619 21.0256 84.3846 20.0085C83.9073 18.9915 83.6687 17.8295 83.6687 16.5227C83.6687 15.1932 83.913 14.0199 84.4016 13.0028C84.896 11.9801 85.5835 11.1818 86.4641 10.608C87.3505 10.0284 88.3846 9.73864 89.5664 9.73864C90.4869 9.73864 91.3164 9.90909 92.055 10.25C92.7937 10.5909 93.3988 11.0682 93.8704 11.6818C94.342 12.2955 94.6346 13.0114 94.7482 13.8295H92.7369C92.5835 13.233 92.2425 12.7045 91.7141 12.2443C91.1914 11.7784 90.4869 11.5455 89.6005 11.5455C88.8164 11.5455 88.1289 11.75 87.538 12.1591C86.9528 12.5625 86.4954 13.1335 86.1658 13.8722C85.842 14.6051 85.68 15.4659 85.68 16.4545C85.68 17.4659 85.8391 18.3466 86.1573 19.0966C86.4812 19.8466 86.9357 20.429 87.521 20.8438C88.1119 21.2585 88.805 21.4659 89.6005 21.4659C90.1232 21.4659 90.5977 21.375 91.0238 21.1932C91.4499 21.0114 91.8107 20.75 92.1062 20.4091C92.4016 20.0682 92.6119 19.6591 92.7369 19.1818H94.7482C94.6346 19.9545 94.3533 20.6506 93.9045 21.2699C93.4613 21.8835 92.8732 22.3722 92.1403 22.7358C91.413 23.0938 90.5664 23.2727 89.6005 23.2727ZM99.5636 18.2273L99.5295 15.7386H99.9386L105.666 9.90909H108.154L102.052 16.0795H101.882L99.5636 18.2273ZM97.6886 23V5.54545H99.6999V23H97.6886ZM106.007 23L100.893 16.5227L102.325 15.125L108.564 23H106.007Z" fill="black"/>
<defs>
<filter id="filter0_d_212_4" x="0" y="0" width="126" height="39" filterUnits="userSpaceOnUse" color-interpolation-filters="sRGB">
<feFlood flood-opacity="0" result="BackgroundImageFix"/>
<feColorMatrix in="SourceAlpha" type="matrix" values="0 0 0 0 0 0 0 0 0 0 0 0 0 0 0 0 0 0 127 0" result="hardAlpha"/>
<feOffset dy="4"/>
<feGaussianBlur stdDeviation="2"/>
<feComposite in2="hardAlpha" operator="out"/>
<feColorMatrix type="matrix" values="0 0 0 0 0 0 0 0 0 0 0 0 0 0 0 0 0 0 0.25 0"/>
<feBlend mode="normal" in2="BackgroundImageFix" result="effect1_dropShadow_212_4"/>
<feBlend mode="normal" in="SourceGraphic" in2="effect1_dropShadow_212_4" result="shape"/>
</filter>
</defs>
</svg>
